<svg xmlns="http://www.w3.org/2000/svg" xmlns:xlink="http://www.w3.org/1999/xlink" width="170" height="64" viewBox="0 0 170 64"><defs><style>.a{fill:#fff;}.b{clip-path:url(#a);}.c{fill:#af8b48;}.d{fill:#38384c;}</style><clipPath id="a"><rect class="a" width="170" height="64" transform="translate(-9458 -19991)"/></clipPath></defs><g class="b" transform="translate(9458 19991)"><g transform="translate(-9689.569 -20222.131)"><g transform="translate(297.44 245.494)"><g transform="translate(0 0)"><path class="c" d="M378.478,269.889v-15.55h1.42v14.275h7.411v1.276Z" transform="translate(-378.478 -253.694)"/><path class="c" d="M406.164,256.141a1,1,0,0,1-.71-.285.937.937,0,0,1,0-1.374,1.037,1.037,0,0,1,1.428,0,.937.937,0,0,1,0,1.374A1.006,1.006,0,0,1,406.164,256.141Zm-.691,13.667V258.145h1.359v11.663Z" transform="translate(-393.712 -253.613)"/><path class="c" d="M420.976,257.368v1.177h-5.732v-1.177Zm-3.941,11.663v-13.3a2.682,2.682,0,0,1,1.579-2.562,3.485,3.485,0,0,1,1.5-.33,3.924,3.924,0,0,1,.884.083,3.3,3.3,0,0,1,.558.175l-.395,1.185q-.152-.053-.372-.11a2.255,2.255,0,0,0-.555-.057,1.805,1.805,0,0,0-1.359.493,1.935,1.935,0,0,0-.478,1.4l-.008,12.976Z" transform="translate(-399.474 -252.835)"/><path class="c" d="M438.209,259.682v1.177h-5.565v-1.177Zm-3.827-2.794h1.359V268.3a2.2,2.2,0,0,0,.251,1.143,1.4,1.4,0,0,0,.653.585,2.17,2.17,0,0,0,.858.171,2.579,2.579,0,0,0,.456-.034q.19-.034.334-.072l.288,1.222a3.437,3.437,0,0,1-.486.141,3.372,3.372,0,0,1-.714.064,3.293,3.293,0,0,1-1.431-.327,2.7,2.7,0,0,1-1.568-2.574Z" transform="translate(-409.41 -255.15)"/><path class="d" d="M467.445,269.889v-15.55h1.42v14.275h7.41v1.276Z" transform="translate(-429.283 -253.694)"/><path class="d" d="M498.747,275.1a5.129,5.129,0,0,1-2.825-.763,5.032,5.032,0,0,1-1.841-2.118,7.144,7.144,0,0,1-.649-3.124,7.224,7.224,0,0,1,.649-3.132,5.231,5.231,0,0,1,1.8-2.149,4.64,4.64,0,0,1,2.662-.779,4.968,4.968,0,0,1,1.829.346,4.549,4.549,0,0,1,1.584,1.056,5.059,5.059,0,0,1,1.112,1.784,7.12,7.12,0,0,1,.41,2.54v.668h-9.112v-1.192h7.73a4.441,4.441,0,0,0-.453-2.023,3.586,3.586,0,0,0-1.253-1.424,3.517,3.517,0,0,0-3.8.069,4.035,4.035,0,0,0-1.318,1.564,4.851,4.851,0,0,0-.482,2.126v.714a5.707,5.707,0,0,0,.482,2.426,3.713,3.713,0,0,0,1.37,1.606,4.189,4.189,0,0,0,3.557.311,3.127,3.127,0,0,0,1.056-.694,3.059,3.059,0,0,0,.649-.96l1.284.417a3.808,3.808,0,0,1-.87,1.359,4.439,4.439,0,0,1-1.5,1A5.334,5.334,0,0,1,498.747,275.1Z" transform="translate(-444.124 -258.657)"/><path class="d" d="M527.422,279.469a6.448,6.448,0,0,1-2.088-.307,4.542,4.542,0,0,1-1.51-.839,4.014,4.014,0,0,1-.957-1.192l1.108-.729a4.172,4.172,0,0,0,.672.866,3.294,3.294,0,0,0,1.1.706,4.392,4.392,0,0,0,1.674.281,3.845,3.845,0,0,0,2.5-.775,2.921,2.921,0,0,0,.952-2.407v-2.627h-.121a4.522,4.522,0,0,1-.675,1.059,3.465,3.465,0,0,1-1.15.877,3.963,3.963,0,0,1-1.758.35,4.509,4.509,0,0,1-2.48-.691,4.69,4.69,0,0,1-1.7-1.977,7.036,7.036,0,0,1-.618-3.072,7.54,7.54,0,0,1,.6-3.113,4.937,4.937,0,0,1,1.69-2.1,4.328,4.328,0,0,1,2.528-.752,3.747,3.747,0,0,1,1.776.376,3.463,3.463,0,0,1,1.135.93,5.69,5.69,0,0,1,.673,1.078h.136V263.19h1.321v11.967a4.343,4.343,0,0,1-.631,2.437,3.753,3.753,0,0,1-1.716,1.416A6.278,6.278,0,0,1,527.422,279.469Zm-.091-5.976a3.331,3.331,0,0,0,1.921-.543,3.419,3.419,0,0,0,1.222-1.56,6.268,6.268,0,0,0,.425-2.422,6.574,6.574,0,0,0-.418-2.426,3.812,3.812,0,0,0-1.211-1.671,3.4,3.4,0,0,0-3.914.019,3.866,3.866,0,0,0-1.215,1.7,6.592,6.592,0,0,0-.41,2.38,6.193,6.193,0,0,0,.417,2.357,3.551,3.551,0,0,0,1.223,1.595A3.29,3.29,0,0,0,527.331,273.493Z" transform="translate(-460.651 -258.657)"/><path class="d" d="M556.209,275.118a4.448,4.448,0,0,1-1.928-.413,3.332,3.332,0,0,1-1.389-1.2,3.4,3.4,0,0,1-.517-1.91,2.979,2.979,0,0,1,.327-1.458,2.655,2.655,0,0,1,.926-.972,5.114,5.114,0,0,1,1.42-.6,13.148,13.148,0,0,1,1.807-.341q.979-.122,1.659-.213a3.031,3.031,0,0,0,1.036-.289.674.674,0,0,0,.357-.638v-.273a2.5,2.5,0,0,0-.709-1.879,2.813,2.813,0,0,0-2.039-.687,3.514,3.514,0,0,0-2.054.554,3.07,3.07,0,0,0-1.112,1.306l-1.283-.463a3.816,3.816,0,0,1,1.093-1.53,4.4,4.4,0,0,1,1.564-.827,6.2,6.2,0,0,1,1.754-.255,5.935,5.935,0,0,1,1.393.175,4.021,4.021,0,0,1,1.348.6,3.138,3.138,0,0,1,1.01,1.192,4.26,4.26,0,0,1,.387,1.932v7.92h-1.352v-1.845h-.084a3.653,3.653,0,0,1-.721,1,3.729,3.729,0,0,1-1.2.8A4.237,4.237,0,0,1,556.209,275.118Zm.183-1.238a3.536,3.536,0,0,0,1.868-.478,3.3,3.3,0,0,0,1.219-1.272,3.62,3.62,0,0,0,.429-1.75v-1.686a1.341,1.341,0,0,1-.5.258,6.834,6.834,0,0,1-.813.2q-.459.087-.915.148t-.819.106a7.586,7.586,0,0,0-1.685.38,2.449,2.449,0,0,0-1.071.71,1.762,1.762,0,0,0-.372,1.158,1.949,1.949,0,0,0,.759,1.644A3.044,3.044,0,0,0,556.392,273.88Z" transform="translate(-477.783 -258.657)"/><path class="d" d="M582.81,254.339v15.55h-1.351v-15.55Z" transform="translate(-494.392 -253.694)"/></g><g transform="translate(0 21.508)"><path class="d" d="M378.478,303.117h1.64l5.642,13.546h.136l5.641-13.546h1.64v15.55h-1.337V306.116h-.121l-5.246,12.551h-1.291l-5.247-12.551h-.121v12.551h-1.336Z" transform="translate(-378.478 -303.056)"/><path class="d" d="M424.211,323.9a4.449,4.449,0,0,1-1.929-.413,3.338,3.338,0,0,1-1.389-1.2,3.4,3.4,0,0,1-.516-1.91,2.985,2.985,0,0,1,.326-1.458,2.658,2.658,0,0,1,.927-.972,5.156,5.156,0,0,1,1.419-.6,13.193,13.193,0,0,1,1.807-.341q.981-.122,1.659-.213a3.028,3.028,0,0,0,1.037-.289.674.674,0,0,0,.357-.637v-.274a2.493,2.493,0,0,0-.71-1.879,2.813,2.813,0,0,0-2.038-.687,3.51,3.51,0,0,0-2.054.554,3.065,3.065,0,0,0-1.112,1.306l-1.283-.463a3.815,3.815,0,0,1,1.093-1.53,4.4,4.4,0,0,1,1.564-.827,6.194,6.194,0,0,1,1.754-.254,5.935,5.935,0,0,1,1.393.175,4.012,4.012,0,0,1,1.348.6,3.132,3.132,0,0,1,1.01,1.192,4.257,4.257,0,0,1,.387,1.932v7.92h-1.352v-1.845h-.084a3.656,3.656,0,0,1-.721,1,3.74,3.74,0,0,1-1.2.8A4.249,4.249,0,0,1,424.211,323.9Zm.182-1.237a3.54,3.54,0,0,0,1.868-.478,3.307,3.307,0,0,0,1.219-1.272,3.623,3.623,0,0,0,.429-1.75v-1.685a1.341,1.341,0,0,1-.5.258,6.826,6.826,0,0,1-.813.2q-.459.088-.915.148t-.82.106a7.558,7.558,0,0,0-1.685.38,2.446,2.446,0,0,0-1.071.71,1.759,1.759,0,0,0-.372,1.158,1.947,1.947,0,0,0,.76,1.644A3.045,3.045,0,0,0,424.394,322.659Z" transform="translate(-402.405 -308.02)"/><path class="d" d="M449.46,323.61V311.948h1.313v1.792h.1a2.931,2.931,0,0,1,1.219-1.424,3.642,3.642,0,0,1,1.97-.543q.167,0,.372.008l.342.015v1.374c-.061-.01-.167-.025-.32-.045a3.676,3.676,0,0,0-.493-.031,3.356,3.356,0,0,0-1.621.383,2.87,2.87,0,0,0-1.53,2.6v7.532Z" transform="translate(-419.013 -308)"/><path class="d" d="M467.231,318.667v-15.55h1.352v15.55Zm1.231-4.4-.016-1.769h.3L474.217,307h1.708l-5.4,5.406-.121.023Zm6.036,4.4-4.738-5.991.972-.933,5.5,6.924Z" transform="translate(-429.161 -303.056)"/><path class="d" d="M496.2,323.874a5.12,5.12,0,0,1-2.824-.763,5.033,5.033,0,0,1-1.841-2.118,7.151,7.151,0,0,1-.649-3.124,7.233,7.233,0,0,1,.649-3.132,5.24,5.24,0,0,1,1.8-2.149,4.636,4.636,0,0,1,2.662-.778,4.967,4.967,0,0,1,1.829.345,4.541,4.541,0,0,1,1.583,1.056,5.063,5.063,0,0,1,1.113,1.784,7.11,7.11,0,0,1,.411,2.54v.668h-9.112V317.01h7.729a4.449,4.449,0,0,0-.452-2.024,3.585,3.585,0,0,0-1.253-1.424,3.518,3.518,0,0,0-3.8.069,4.031,4.031,0,0,0-1.317,1.564,4.839,4.839,0,0,0-.483,2.126v.714a5.694,5.694,0,0,0,.483,2.426,3.715,3.715,0,0,0,1.37,1.606,4.191,4.191,0,0,0,3.557.311,3.132,3.132,0,0,0,1.056-.694,3.083,3.083,0,0,0,.649-.96l1.283.418a3.8,3.8,0,0,1-.869,1.358,4.452,4.452,0,0,1-1.5,1A5.326,5.326,0,0,1,496.2,323.874Z" transform="translate(-442.667 -308.02)"/><path class="d" d="M524.521,308.461v1.177h-5.566v-1.177Zm-3.827-2.795h1.36v11.412a2.2,2.2,0,0,0,.25,1.142,1.392,1.392,0,0,0,.652.585,2.169,2.169,0,0,0,.858.171,2.579,2.579,0,0,0,.456-.034c.127-.022.238-.046.334-.072l.288,1.222a3.541,3.541,0,0,1-.486.141,3.336,3.336,0,0,1-.714.064,3.3,3.3,0,0,1-1.431-.326,2.7,2.7,0,0,1-1.568-2.574Z" transform="translate(-458.699 -304.512)"/><path class="d" d="M539.383,304.92a1,1,0,0,1-.71-.285.937.937,0,0,1,0-1.374,1.037,1.037,0,0,1,1.427,0,.937.937,0,0,1,0,1.374A1.007,1.007,0,0,1,539.383,304.92Zm-.691,13.667V306.924h1.359v11.662Z" transform="translate(-469.787 -302.976)"/><path class="d" d="M551.992,316.352v7.289h-1.351V311.978h1.313v1.829h.121a3.28,3.28,0,0,1,1.28-1.439,3.99,3.99,0,0,1,2.152-.543,4.226,4.226,0,0,1,2.069.49,3.385,3.385,0,0,1,1.389,1.439,4.974,4.974,0,0,1,.5,2.331v7.555h-1.351v-7.471a3.146,3.146,0,0,0-.8-2.27,2.835,2.835,0,0,0-2.146-.835,3.313,3.313,0,0,0-1.632.4,2.857,2.857,0,0,0-1.128,1.135A3.543,3.543,0,0,0,551.992,316.352Z" transform="translate(-476.793 -308.03)"/><path class="d" d="M583.18,328.248a6.436,6.436,0,0,1-2.088-.308,4.532,4.532,0,0,1-1.51-.839,4,4,0,0,1-.957-1.192l1.108-.729a4.176,4.176,0,0,0,.672.866,3.3,3.3,0,0,0,1.1.706,4.4,4.4,0,0,0,1.675.281,3.844,3.844,0,0,0,2.5-.775,2.919,2.919,0,0,0,.953-2.407v-2.627h-.121a4.528,4.528,0,0,1-.675,1.059,3.465,3.465,0,0,1-1.151.877,3.964,3.964,0,0,1-1.758.35,4.509,4.509,0,0,1-2.48-.691,4.692,4.692,0,0,1-1.7-1.978,7.034,7.034,0,0,1-.618-3.072,7.542,7.542,0,0,1,.6-3.113,4.937,4.937,0,0,1,1.69-2.1,4.331,4.331,0,0,1,2.528-.752,3.753,3.753,0,0,1,1.776.376,3.474,3.474,0,0,1,1.135.93,5.713,5.713,0,0,1,.673,1.078h.136v-2.224h1.321v11.966a4.345,4.345,0,0,1-.631,2.438,3.753,3.753,0,0,1-1.716,1.416A6.28,6.28,0,0,1,583.18,328.248Zm-.091-5.976a3.332,3.332,0,0,0,1.921-.543,3.42,3.42,0,0,0,1.222-1.56,6.267,6.267,0,0,0,.426-2.422,6.575,6.575,0,0,0-.418-2.426,3.813,3.813,0,0,0-1.211-1.67,3.4,3.4,0,0,0-3.914.019,3.861,3.861,0,0,0-1.215,1.7,6.585,6.585,0,0,0-.41,2.38,6.2,6.2,0,0,0,.417,2.357,3.551,3.551,0,0,0,1.223,1.595A3.285,3.285,0,0,0,583.089,322.272Z" transform="translate(-492.492 -308.02)"/></g></g><g transform="translate(236.569 239.98)"><path class="d" d="M284.919,267.865a24.307,24.307,0,1,1-24.046-27.885c.5,0,1,.021,1.484.052v27.834Z" transform="translate(-236.569 -239.98)"/><path class="c" d="M324.438,265.028c0,.082-.006.17-.006.252H305.309v-24A24.316,24.316,0,0,1,324.438,265.028Z" transform="translate(-275.824 -240.721)"/></g></g></g></svg>